-
http:// www. Speed. Cd       
http:// www. Speed. Cd       the fast  and The Hottest Private Tracker on the net

Please Seed back to make the speed Faster!!!

and don't forget to visit      ...... www. Speed. Cd..........
-[img]http://img851.imageshack.us/img851/787/thewayback2011bluray.jpg[/img]

[color=blue][size=5][b]The Way Back 2010 BDRip XVID AC3 HQ Hive-CM8[/b][/size][/color]



[b]Thx Hive

CM8 Doing It Right The First Time :D

Why download a touched up rip of a rip BRrip
Get the real deal BDRip


Enjoy

Source Bluray

Video: 720x304 @bitrate 1900 2pass
Audio: English DTS to AC3 5.1 @448
Sample: yes included
Subs: english subs hardcoded for the foreign parts
      full subs are in srt /subs[/b]


[url]http://www.imdb.com/title/tt1023114/[/url]


General
Complete name                    : The.Way.Back.2010.BDRip.XVID.AC3.HQ.Hive-CM8.avi
Format                           : AVI
Format/Info                      : Audio Video Interleave
Format profile                   : OpenDML
File size                        : 2.19 GiB
Duration                         : 2h 13mn
Overall bit rate                 : 2 353 Kbps
Writing application              : AVI-Mux GUI 1.17.7, Aug  8 2006  20:59:17

Video
ID                               : 0
Format                           : MPEG-4 Visual
Format profile                   : Advanced Simple@L5
Format settings, BVOP            : Yes
Format settings, QPel            : Yes
Format settings, GMC             : No warppoints
Format settings, Matrix          : Default (H.263)
Muxing mode                      : Packed bitstream
Codec ID                         : XVID
Codec ID/Hint                    : XviD
Duration                         : 2h 13mn
Bit rate                         : 1 900 Kbps
Width                            : 720 pixels
Height                           : 304 pixels
Display aspect ratio             : 2.35:1
Frame rate                       : 23.976 fps
Color space                      : YUV
Chroma subsampling               : 4:2:0
Bit depth                        : 8 bits
Scan type                        : Progressive
Bits/(Pixel*Frame)               : 0.362
Stream size                      : 1.77 GiB (81%)
Writing library                  : XviD 1.2.1 (UTC 2008-12-04)

Audio
ID                               : 1
Format                           : AC-3
Format/Info                      : Audio Coding 3
Mode extension                   : CM (complete main)
Codec ID                         : 2000
Duration                         : 2h 13mn
Bit rate mode                    : Constant
Bit rate                         : 448 Kbps
Channel(s)                       : 6 channels
Channel positions                : Front: L C R, Side: L R, LFE
Sampling rate                    : 48.0 KHz
Bit depth                        : 16 bits
Stream size                      : 427 MiB (19%)
Alignment                        : Aligned on interleaves
Interleave, duration             : 64 ms (1.53 video frames)
Interleave, preload duration     : 192 ms


Valka	...  Colin Farrell
Andrei	...  Dejan Angelov
Garbage Eater #1  .... Yordan Bikov
Zoran	....  Dragos Bucur
Mongolian Horseman  ....  Sattar Dikambayev
Janusz's Wife - 1939  .....  Sally Edwards
Guard #2  .....  Valentin Ganev
Bohdan	....  Igor Gnezdilov
Lazar	......  Mariy Grigorov
Mr. Smith  .....  Ed Harris



Under cover of a night-time blizzard, seven prisoners caught up in Stalin's 
Reign of Terror escape a Soviet Gulag in 1940. They are now free men and almost 
certainly, dead men for their impending trek to safety defies any reasonable 
chance of success and the landscape they must cross is unforgiving. 



[img]http://img228.imageshack.us/img228/1709/71913368.png[/img]
[img]http://img508.imageshack.us/img508/906/wawar.png[/img]
[img]http://img847.imageshack.us/img847/5784/wawawa.png[/img]
[img]http://img684.imageshack.us/img684/633/wawwaawa.png[/img]
[img]http://img62.imageshack.us/img62/5949/wawwawaawa.png[/img]
[img]http://img714.imageshack.us/img714/6128/wawwawawaawa.png[/img]
[img]http://img847.imageshack.us/img847/994/wawwawawaawaaa.png[/img]





ViSiON,LUSi,SANTi,MAGNET,THC,T0XiCiNK,LKRG,IMAGiNE,WBZ,FLAWL3SS,NOVA
Vik,Rapeseed,D2U,SAFC,goldadvance,MEMORY100,KaN1vE,Unevano,Pinnz,Wayne,Mr Hive
and all P2P groups 
Great Work Guys :D

CM8@hushmail.com